# xmcd
#
# Track frame offsets: 
#        150
#        18813
#        34808
#        53165
#        69763
#        86463
#        98600
#        115883
#        136235
#        152798
#
# Disc length: 2287 seconds
#
# Revision: 2
# Processed by: cddbd v1.5PL3 Copyright (c) Steve Scherf et al.
# Submitted via: ExactAudioCopy v0.95a3
#
DISCID=6f08ed0a
DTITLE=Rodney Crowell - Let The Picture Paint Itself
DYEAR=1994
DGENRE=Country
TTITLE0=Let The Picture Paint Itself
TTITLE1=Give My Heart A Rest
TTITLE2=Stuff That Works
TTITLE3=Big Heart
TTITLE4=Loving You Makes Me Strong
TTITLE5=The Best Years Of Our Lives
TTITLE6=I Don't Fall In Love So Easy
TTITLE7=That Ol' Door
TTITLE8=The Rose Of Memphis
TTITLE9=Once In A While
EXTD=
EXTT0=
EXTT1=
EXTT2=
EXTT3=
EXTT4=
EXTT5=
EXTT6=
EXTT7=
EXTT8=
EXTT9=
PLAYORDER=
